<?xml version="1.0" encoding="UTF-8"?><svg id="Icons" xmlns="http://www.w3.org/2000/svg" viewBox="0 0 32 32"><path d="M12.227,19.011h-2.227v-2.011h2.261c1.879,0,2.003,2.011-.033,2.011Zm8.125-4.157c-.977,0-1.518,.512-1.659,1.479h3.31c-.07-1.031-.757-1.479-1.651-1.479Zm-8.171-1.854h-2.181v2h2.389c1.672,0,1.937-2-.208-2Zm17.819,3c0,7.732-6.268,14-14,14S2,23.732,2,16,8.268,2,16,2s14,6.268,14,14Zm-15.551-.382c1.907-.975,1.837-4.55-1.813-4.604h-4.635v9.978h4.311c4.523,0,4.445-4.534,2.138-5.374Zm3.551-3.285h4.667v-1.333h-4.667v1.333Zm5.935,3.887c-.274-1.763-1.529-2.951-3.583-2.951-2.094,0-3.644,1.34-3.644,3.947,0,2.631,1.66,3.783,3.709,3.783s3.106-1.135,3.401-2h-2.112c-.737,.855-2.972,.788-3.059-1.353h5.351c.009-.635-.011-1.089-.063-1.427Z"/></svg>