<?xml version="1.0" encoding="UTF-8"?><svg id="Icons" xmlns="http://www.w3.org/2000/svg" viewBox="0 0 32 32"><path d="M24.143,13.894c.064,.102,.089,.242,.089,.344,0,.229-.166,.548-.242,.701-.28,.599-.739,1.517-.739,2.574,0,2.307-.815,3.455-1.453,4.041-.624,.586-1.606,1.097-2.766,1.097-.828,0-1.683-.242-2.383-.701-.981-.65-1.594-1.67-2.218-2.689-.497-.828-.841-1.479-1.377-2.74-.302-.731-.584-1.444-.826-2.221-.115-.369-.102-.65,.038-.828,.14-.166,.331-.242,.561-.255,.395-.013,.548,.268,.777,.994,.14,.459,.42,1.122,.586,1.492,.217,.446,.522,1.045,.662,1.25,.115,.178,.217,.229,.331,.229,.204,0,.357-.115,.357-.318,0-.115-.115-.306-.178-.42-.115-.217-.357-.65-.522-1.019-.178-.408-.382-.917-.548-1.377-.102-.268-.217-.65-.331-1.032-.178-.586-.268-.943-.268-1.211,0-.408,.306-.675,.764-.675,.331,0,.548,.166,.688,.764,.115,.548,.318,1.441,.612,2.141,.191,.459,.471,1.071,.637,1.377,.102,.178,.217,.331,.217,.395,0,.089-.166,.229-.306,.42-.089,.115-.127,.191-.127,.28,0,.076,.051,.153,.127,.255,.076,.102,.153,.204,.242,.204,.064,0,.102-.025,.14-.076,.395-.497,.828-.841,1.326-1.122,.586-.331,1.186-.497,1.657-.599,.229-.051,.293-.102,.293-.229,0-.153-.115-.242-.268-.255-.115-.013-.217,0-.395,.013-.127,.013-.191-.051-.268-.217-.229-.484-.675-1.301-.943-2.345-.115-.446-.217-.917-.28-1.53-.038-.28,.013-.382,.153-.51,.178-.153,.497-.217,.739-.153,.293,.076,.446,.306,.599,1.199,.076,.42,.204,.955,.357,1.415,.191,.586,.433,1.071,.803,1.721,.204,.357,.459,.726,.726,1.084-.051,.153-.14,.255-.433,.497-.293,.242-.586,.497-.854,.968-.191,.344-.28,.726-.28,.981,0,.242,.051,.293,.204,.293,.268,0,.484-.051,.497-.166,.064-.459,.14-.752,.395-1.097,.153-.191,.42-.433,.637-.624,.408-.331,.548-.522,.688-.994,.064-.217,.14-.42,.242-.611,.242-.446,.675-.955,1.352-.955,.216,0,.395,.064,.51,.242Zm-8.09-1.291c.115,.472,.255,.88,.395,1.237,.166,.434,.357,.804,.624,1.3,.127,.242,.191,.242,.497,.076,.242-.127,.599-.28,.866-.369-.459-.994-.841-1.823-1.032-2.523-.051-.204-.229-1.02-.28-1.377-.038-.357-.076-.662-.166-.994-.102-.408-.242-.599-.637-.599-.369,0-.815,.191-.815,.675,0,.318,.089,.79,.178,1.171,.153,.371,.178,.6,.369,1.402Zm13.947,3.397c0,7.732-6.268,14-14,14S2,23.732,2,16,8.268,2,16,2s14,6.268,14,14ZM7.874,11.16c.34,.204,1.647,.995,2.087,1.134,.22,.069,.336,.007,.46-.237,.124-.244,.156-.343-.08-.533-.244-.197-1.524-1.193-1.887-1.382-.313-.162-.523-.1-.713,.259-.214,.406-.175,.573,.133,.759Zm-.457,4.273c.365,.036,1.962,.104,2.346,.094,.181-.006,.322-.065,.365-.378,.034-.241-.005-.366-.28-.452-.266-.082-1.94-.354-2.301-.389-.312-.03-.504,0-.541,.493-.035,.46,.094,.6,.411,.631Zm3.734,2.577c-.104-.261-.255-.334-.471-.276-.308,.083-1.634,.563-1.954,.687-.361,.14-.615,.268-.434,.806,.147,.435,.397,.456,.628,.371,.323-.119,1.753-.869,2.023-1.035,.244-.152,.323-.266,.208-.552Zm13.85-3.775c0-.242-.064-.522-.229-.764-.255-.433-.713-.586-1.135-.586-.981,0-1.657,.688-2.001,1.39l-.115,.229c-.14-.204-.28-.42-.395-.612-.357-.624-.56-1.045-.739-1.581-.14-.42-.255-.904-.331-1.301-.217-1.25-.573-1.657-1.16-1.81-.433-.115-.943-.026-1.313,.217-.254-.573-.687-.828-1.261-.828-.815,0-1.555,.535-1.555,1.441,0,.115,.013,.229,.026,.369-.102-.025-.217-.038-.331-.038-.879,0-1.53,.611-1.53,1.441,0,.191,.026,.408,.089,.662-.076-.013-.153-.013-.229-.013-.433,.026-.828,.191-1.109,.535-.279,.331-.394,.841-.177,1.543,.242,.803,.535,1.555,.854,2.281,.548,1.301,.917,1.988,1.428,2.842,.624,1.019,1.313,2.18,2.447,2.931,.828,.548,1.836,.828,2.804,.828,1.364,0,2.536-.599,3.289-1.301,.739-.688,1.695-2.014,1.695-4.601,0-.892,.395-1.657,.688-2.269,0-.013,.013-.038,.038-.089,.115-.255,.255-.586,.255-.917Z"/></svg>