<?xml version="1.0" encoding="UTF-8"?><svg id="Icons" xmlns="http://www.w3.org/2000/svg" viewBox="0 0 32 32"><path d="M14.782,16.607c-.014,.881-.635,1.597-1.44,1.597-.789,0-1.441-.716-1.441-1.597s.629-1.603,1.438-1.603,1.456,.722,1.442,1.603Zm3.876-1.603c-.81,0-1.44,.722-1.44,1.603s.649,1.597,1.44,1.597c.804,0,1.425-.716,1.438-1.597s-.628-1.603-1.438-1.603Zm11.342,.997c0,7.732-6.268,14-14,14S2,23.732,2,16,8.268,2,16,2s14,6.268,14,14Zm-8.446-5.048c-1.051-.481-2.161-.823-3.301-1.016-.156,.279-.297,.566-.423,.859-1.214-.183-2.449-.183-3.663,0-.126-.294-.267-.581-.423-.859-1.141,.194-2.251,.537-3.303,1.018-2.089,3.091-2.655,6.105-2.372,9.076,1.223,.904,2.593,1.591,4.048,2.032,.328-.441,.618-.909,.867-1.398-.473-.177-.93-.395-1.365-.652,.115-.083,.227-.169,.335-.252,2.563,1.206,5.531,1.206,8.094,0,.109,.089,.221,.175,.335,.252-.436,.257-.894,.476-1.368,.653,.249,.489,.539,.957,.867,1.397,1.457-.439,2.827-1.126,4.051-2.031,.332-3.446-.568-6.432-2.378-9.08Z"/></svg>