<?xml version="1.0" encoding="UTF-8"?><svg id="Icons" xmlns="http://www.w3.org/2000/svg" viewBox="0 0 32 32"><path d="M10.925,20.575h0c-1.094-1.214-1.756-2.816-1.763-4.574,0-.069,.006-.138,.006-.206,.3,.006,3.612,.05,7.025-.97,.199,.379,.385,.765,.556,1.158-.088,.025-.181,.05-.269,.081-3.525,1.145-5.4,4.249-5.556,4.512Zm4.706-6.8c-1.131-2.014-2.356-3.704-2.531-3.95-1.919,.903-3.344,2.667-3.787,4.782,.306,.006,3.119,.019,6.319-.833Zm4.9-2.878c-1.248-1.11-2.861-1.722-4.531-1.72-.539,.002-1.076,.064-1.6,.188,.937,1.275,1.789,2.611,2.55,3.998,2.431-.914,3.456-2.29,3.581-2.466Zm-3.362,6.232c-3.856,1.345-5.237,4.018-5.362,4.268,1.156,.901,2.612,1.439,4.194,1.439,.944,.006,1.85-.188,2.669-.538-.1-.601-.5-2.691-1.456-5.181-.013,.006-.031,.012-.044,.012Zm1.319-.331c.894,2.45,1.256,4.455,1.325,4.868,1.537-1.033,2.631-2.672,2.931-4.574h0c-.231-.075-2.113-.632-4.256-.294Zm11.513-.798c0,7.732-6.268,14-14,14S2,23.732,2,16,8.268,2,16,2s14,6.268,14,14Zm-6-.003c0-4.411-3.588-7.997-8-7.997s-8,3.586-8,8.003,3.588,7.997,8,7.997,8-3.592,8-8.003Zm-2.713-4.311c-.144,.194-1.287,1.664-3.812,2.697l.456,.989,.15,.351c2.275-.287,4.531,.175,4.756,.219-.016-1.554-.563-3.055-1.55-4.255h0Z"/></svg>