<svg width="24" height="24" viewBox="0 0 24 24" fill="none" xmlns="http://www.w3.org/2000/svg">
<rect x="2" y="2" width="20" height="20" rx="4.5" stroke="black"/>
<path d="M17.7 15.4L13.7143 11.8M10.2857 11.8L6.30002 15.4M6 8.8L10.899 12.2293C11.2957 12.507 11.494 12.6458 11.7098 12.6996C11.9003 12.7471 12.0997 12.7471 12.2902 12.6996C12.506 12.6458 12.7043 12.507 13.101 12.2293L18 8.8M8.88 16.6H15.12C16.1281 16.6 16.6321 16.6 17.0172 16.4038C17.3559 16.2312 17.6312 15.9559 17.8038 15.6172C18 15.2321 18 14.7281 18 13.72V9.88C18 8.87191 18 8.36786 17.8038 7.98282C17.6312 7.64413 17.3559 7.36876 17.0172 7.19619C16.6321 7 16.1281 7 15.12 7H8.88C7.87191 7 7.36786 7 6.98282 7.19619C6.64413 7.36876 6.36876 7.64413 6.19619 7.98282C6 8.36786 6 8.87191 6 9.88V13.72C6 14.7281 6 15.2321 6.19619 15.6172C6.36876 15.9559 6.64413 16.2312 6.98282 16.4038C7.36786 16.6 7.87191 16.6 8.88 16.6Z" stroke="black" stroke-linecap="round" stroke-linejoin="round"/>
</svg>
