<?xml version="1.0" encoding="UTF-8"?><svg id="Icons" xmlns="http://www.w3.org/2000/svg" viewBox="0 0 32 32"><path d="M18.667,16c0,1.473-1.194,2.667-2.667,2.667s-2.667-1.194-2.667-2.667,1.194-2.667,2.667-2.667,2.667,1.194,2.667,2.667Zm3.845-3.233c.039,.844,.047,1.097,.047,3.233s-.008,2.389-.047,3.233c-.036,.78-.166,1.204-.275,1.485-.145,.373-.318,.64-.598,.92-.28,.28-.546,.453-.92,.598-.282,.11-.705,.24-1.485,.275-.844,.038-1.096,.047-3.233,.047s-2.389-.008-3.233-.047c-.78-.036-1.204-.166-1.485-.275-.373-.145-.64-.318-.92-.598-.28-.28-.453-.546-.598-.92-.11-.282-.24-.705-.275-1.485-.039-.844-.047-1.097-.047-3.233s.008-2.389,.047-3.233c.036-.78,.166-1.204,.275-1.485,.145-.373,.318-.64,.598-.92s.546-.453,.92-.599c.282-.109,.705-.24,1.485-.275,.844-.038,1.097-.047,3.233-.047s2.389,.008,3.233,.047c.78,.036,1.204,.166,1.485,.275,.373,.145,.64,.319,.92,.598s.453,.546,.598,.92c.11,.282,.24,.706,.275,1.485Zm-2.404,3.233c0-2.269-1.839-4.108-4.108-4.108s-4.108,1.839-4.108,4.108,1.839,4.108,4.108,4.108,4.108-1.839,4.108-4.108Zm1.122-4.27c0-.53-.43-.96-.96-.96s-.96,.43-.96,.96,.43,.96,.96,.96,.96-.43,.96-.96Zm8.77,4.27c0,7.732-6.268,14-14,14S2,23.732,2,16,8.268,2,16,2s14,6.268,14,14Zm-6,0c0-2.173-.009-2.445-.048-3.298-.039-.852-.174-1.433-.372-1.942-.204-.526-.478-.972-.923-1.417-.445-.445-.891-.718-1.417-.923-.509-.198-1.09-.333-1.942-.372-.853-.039-1.126-.048-3.298-.048s-2.445,.009-3.298,.048c-.852,.039-1.433,.174-1.942,.372-.526,.204-.972,.478-1.417,.923s-.718,.891-.923,1.417c-.198,.509-.333,1.09-.372,1.942-.039,.853-.048,1.126-.048,3.298s.009,2.445,.048,3.298c.039,.852,.174,1.433,.372,1.942,.204,.526,.478,.972,.923,1.417,.445,.445,.891,.718,1.417,.923,.509,.198,1.09,.333,1.942,.372,.853,.039,1.126,.048,3.298,.048s2.445-.009,3.298-.048c.852-.039,1.433-.174,1.942-.372,.526-.204,.972-.478,1.417-.923,.445-.445,.718-.891,.923-1.417,.198-.509,.333-1.09,.372-1.942,.039-.853,.048-1.126,.048-3.298Z"/></svg>