<?xml version="1.0" encoding="UTF-8"?><svg id="Icons" xmlns="http://www.w3.org/2000/svg" viewBox="0 0 32 32"><path d="M16,2c-7.732,0-14,6.268-14,14s6.268,14,14,14,14-6.268,14-14S23.732,2,16,2Zm-3.998,20h-3.14V12.554h3.14v9.446Zm-1.57-10.736h-.02c-1.054,0-1.735-.725-1.735-1.632,0-.927,.702-1.632,1.776-1.632s1.735,.705,1.756,1.632c0,.906-.682,1.632-1.776,1.632Zm12.891,10.736h-3.139v-5.054c0-1.27-.454-2.136-1.591-2.136-.867,0-1.384,.584-1.611,1.148-.083,.202-.103,.484-.103,.766v5.275h-3.14s.041-8.56,0-9.446h3.14v1.338c.417-.644,1.163-1.56,2.83-1.56,2.066,0,3.615,1.35,3.615,4.252v5.416Z"/></svg>