<?xml version="1.0" encoding="UTF-8"?><svg id="Icons" xmlns="http://www.w3.org/2000/svg" viewBox="0 0 32 32"><path d="M20.804,13.971l-2.35,3.728c-.374,.593-1.174,.741-1.735,.32l-1.869-1.402c-.172-.129-.407-.128-.578,.002l-2.524,1.916c-.337,.256-.777-.148-.551-.505l2.35-3.728c.374-.593,1.174-.741,1.735-.32l1.869,1.402c.172,.129,.407,.128,.578-.002l2.524-1.916c.337-.256,.777,.148,.551,.505Zm9.196,2.029c0,7.732-6.268,14-14,14S2,23.732,2,16,8.268,2,16,2s14,6.268,14,14Zm-6-.24c0-4.459-3.493-7.76-8-7.76s-8,3.301-8,7.76c0,2.332,.956,4.348,2.512,5.74,.131,.117,.21,.281,.215,.456l.044,1.423c.014,.454,.483,.749,.898,.566l1.588-.701c.135-.059,.285-.07,.427-.031,.73,.201,1.506,.308,2.316,.308,4.507,0,8-3.301,8-7.76Z"/></svg>