<?xml version="1.0" encoding="UTF-8"?><svg id="Icons" xmlns="http://www.w3.org/2000/svg" viewBox="0 0 32 32"><path d="M16,2c-7.732,0-14,6.268-14,14s6.268,14,14,14,14-6.268,14-14S23.732,2,16,2Zm0,22c-.825,0-1.62-.125-2.369-.357,.326-.531,.814-1.402,.994-2.097,.097-.374,.498-1.902,.498-1.902,.261,.497,1.023,.919,1.834,.919,2.413,0,4.151-2.219,4.151-4.976,0-2.643-2.157-4.62-4.932-4.62-3.452,0-5.286,2.318-5.286,4.841,0,1.173,.625,2.634,1.624,3.099,.152,.071,.233,.039,.268-.107,.026-.111,.161-.655,.222-.907,.019-.081,.01-.15-.055-.229-.331-.401-.595-1.138-.595-1.826,0-1.764,1.336-3.472,3.612-3.472,1.965,0,3.342,1.339,3.342,3.255,0,2.164-1.093,3.663-2.515,3.663-.785,0-1.373-.649-1.185-1.446,.226-.951,.663-1.977,.663-2.664,0-.615-.33-1.127-1.012-1.127-.803,0-1.448,.83-1.448,1.943,0,.708,.239,1.188,.239,1.188,0,0-.793,3.352-.938,3.977-.161,.691-.098,1.664-.028,2.297-2.976-1.166-5.085-4.063-5.085-7.452,0-4.418,3.582-8,8-8s8,3.582,8,8-3.582,8-8,8Z"/></svg>