<?xml version="1.0" encoding="UTF-8"?><svg id="Icons" xmlns="http://www.w3.org/2000/svg" viewBox="0 0 32 32"><path d="M20.172,14.835c-.315,0-.601,.124-.811,.325-.802-.573-1.9-.945-3.122-.993l.535-2.501,1.737,.372c.019,.439,.382,.792,.831,.792,.458,0,.831-.372,.831-.831s-.372-.831-.831-.831c-.325,0-.611,.191-.745,.468l-1.938-.41c-.057-.01-.115,0-.153,.029-.048,.029-.076,.076-.086,.134l-.592,2.788c-1.241,.038-2.358,.411-3.169,.993-.21-.201-.496-.325-.811-.325-.649,0-1.165,.525-1.165,1.165,0,.477,.286,.878,.687,1.06-.019,.115-.029,.229-.029,.353,0,1.795,2.091,3.255,4.668,3.255s4.668-1.451,4.668-3.255c0-.115-.01-.239-.029-.353,.401-.181,.687-.592,.687-1.069,0-.649-.525-1.165-1.165-1.165Zm-6.835,1.995c0-.458,.372-.831,.831-.831s.831,.372,.831,.831-.372,.831-.831,.831c-.458,.01-.831-.372-.831-.831Zm4.649,2.205c-.573,.573-1.661,.611-1.976,.611-.325,0-1.413-.048-1.976-.611-.086-.086-.086-.22,0-.305,.086-.086,.22-.086,.306,0,.363,.363,1.126,.487,1.671,.487s1.317-.124,1.671-.487c.086-.086,.22-.086,.305,0,.076,.086,.076,.22,0,.305Zm-.153-1.365c-.458,0-.831-.372-.831-.831s.372-.831,.831-.831,.831,.372,.831,.831c0,.449-.372,.831-.831,.831Zm-1.833-15.671c-7.732,0-14,6.268-14,14s6.268,14,14,14,14-6.268,14-14S23.732,2,16,2Zm0,22c-4.418,0-8-3.582-8-8s3.582-8,8-8,8,3.582,8,8-3.582,8-8,8Z"/></svg>