<?xml version="1.0" encoding="UTF-8"?><svg id="Icons" xmlns="http://www.w3.org/2000/svg" viewBox="0 0 32 32"><path d="M16,2c-7.732,0-14,6.268-14,14s6.268,14,14,14,14-6.268,14-14S23.732,2,16,2Zm7.766,12.077l-.728,.18c-.174-.707-.455-1.384-.831-2.008l.642-.385c.415,.687,.724,1.433,.916,2.212Zm-14.263,1.926c-.002-3.59,2.907-6.501,6.496-6.503h0c1.228,0,2.431,.346,3.47,1,3.037,1.913,3.949,5.927,2.035,8.964-1.913,3.037-5.927,3.949-8.964,2.035l-2.666,.625,.625-2.666c-.651-1.035-.996-2.233-.997-3.455Zm11.247-6.444c.645,.476,1.214,1.045,1.69,1.69l-.604,.45c-.432-.586-.95-1.104-1.536-1.536l.45-.604Zm-2.83-1.326c.781,.192,1.529,.501,2.217,.916l-.388,.642c-.624-.377-1.302-.657-2.01-.831l.18-.727Zm-.721-.143l-.113,.741c-.72-.108-1.452-.108-2.172,0l-.112-.741c.795-.12,1.603-.12,2.397,0Zm-3.119,.143l.18,.727c-.708,.174-1.386,.454-2.01,.831l-.385-.642c.688-.415,1.435-.724,2.215-.916Zm-2.83,1.326l.45,.604c-.586,.432-1.104,.95-1.536,1.536l-.604-.45c.476-.645,1.045-1.214,1.69-1.69Zm-2.1,2.305l.643,.385c-.377,.624-.657,1.302-.831,2.01l-.728-.18c.192-.78,.501-1.527,.916-2.215Zm-1.06,2.936l.741,.113c-.054,.359-.081,.723-.081,1.086,0,.364,.027,.727,.081,1.086l-.741,.113c-.12-.795-.12-1.603,0-2.398Zm.871,2.939c.17,.692,.442,1.355,.806,1.968l-.25,1.074-.73-.17,.184-.79c-.327-.599-.574-1.238-.737-1.901l.728-.18Zm.21,5.99c-.113,.026-.23,.026-.342,0-.403-.094-.654-.498-.559-.901l.361-1.549,.73,.171-.361,1.549,1.549-.361,.17,.736-1.547,.355Zm4.904,.04c-.663-.163-1.302-.411-1.901-.738l-.79,.184-.17-.73,1.074-.25,.005-.005c.611,.366,1.272,.639,1.963,.811l-.18,.727Zm.726,.141l.113-.741c.72,.108,1.452,.108,2.172,0l.113,.741c-.795,.12-1.603,.12-2.398,0Zm3.121-.145l-.18-.727c.707-.174,1.384-.455,2.007-.831l.385,.642c-.687,.415-1.433,.724-2.212,.916Zm2.822-1.326l-.445-.604c.586-.432,1.104-.949,1.536-1.535l.604,.449c-.477,.645-1.049,1.215-1.695,1.69Zm2.105-2.302l-.642-.388c.377-.624,.657-1.302,.831-2.01l.727,.18c-.192,.781-.501,1.529-.916,2.217Zm1.06-2.939l-.741-.113c.054-.359,.082-.723,.081-1.086,0-.364-.027-.727-.081-1.086l.741-.113c.12,.795,.12,1.603,0,2.398Z"/></svg>