<?xml version="1.0" encoding="UTF-8"?><svg id="Icons" xmlns="http://www.w3.org/2000/svg" viewBox="0 0 32 32"><path d="M19.897,17.715c0,1.652-1.268,2.886-3.828,2.886-2.691,0-3.894-1.323-3.894-2.314,0-.509,.375-.865,.893-.865,1.151,0,.853,1.653,3.002,1.653,1.1,0,1.707-.597,1.707-1.208,0-.368-.181-.775-.906-.953l-2.393-.597c-1.927-.483-2.277-1.525-2.277-2.505,0-2.033,1.915-2.797,3.713-2.797,1.656,0,3.609,.915,3.609,2.135,0,.523-.453,.827-.97,.827-.983,0-.802-1.36-2.781-1.36-.982,0-1.526,.445-1.526,1.081s.776,.838,1.449,.992l1.771,.393c1.94,.432,2.432,1.565,2.432,2.632Zm10.103-1.715c0,7.732-6.268,14-14,14S2,23.732,2,16,8.268,2,16,2s14,6.268,14,14Zm-5.947,3.517c0-.765-.197-1.517-.568-2.181,.083-.451,.126-.912,.126-1.373,0-1.022-.2-2.014-.596-2.948-.381-.902-.927-1.712-1.623-2.407-.695-.695-1.505-1.241-2.407-1.623-.933-.395-1.925-.595-2.948-.595-.482,0-.964,.045-1.434,.135-.001,0-.002,0-.004,0-.644-.343-1.369-.526-2.103-.526-1.198,0-2.324,.466-3.17,1.313-.847,.847-1.313,1.973-1.313,3.17,0,.762,.196,1.512,.564,2.174-.075,.429-.114,.867-.114,1.305,0,1.023,.2,2.014,.596,2.948,.381,.902,.927,1.712,1.622,2.407,.696,.695,1.505,1.242,2.408,1.622,.933,.396,1.926,.596,2.948,.596,.445,0,.891-.041,1.326-.118,.671,.38,1.43,.581,2.206,.581,1.197,0,2.323-.466,3.17-1.313,.847-.846,1.313-1.973,1.313-3.17Z"/></svg>