<?xml version="1.0" encoding="UTF-8"?><svg id="Icons" xmlns="http://www.w3.org/2000/svg" viewBox="0 0 32 32"><path d="M22.821,20.249c-.684,.378-1.138,.337-1.492,.565-.3,.193-.123,.61-.341,.761-.268,.185-1.061-.013-2.085,.325-.845,.279-1.383,1.082-2.902,1.082s-2.045-.801-2.904-1.084c-1.022-.338-1.816-.14-2.085-.325-.218-.15-.041-.567-.341-.761-.354-.228-.809-.187-1.492-.563-.435-.24-.188-.389-.043-.459,2.477-1.199,2.873-3.051,2.89-3.189,.021-.166,.045-.297-.138-.466-.177-.164-.962-.65-1.18-.802-.361-.252-.519-.503-.402-.812,.082-.214,.281-.294,.491-.294,.066,0,.132,.008,.197,.022,.396,.086,.78,.284,1.002,.338,.027,.007,.054,.011,.082,.011,.119,0,.16-.06,.152-.195-.025-.433-.087-1.277-.018-2.065,.094-1.085,.443-1.622,.858-2.098,.2-.229,1.137-1.219,2.929-1.219s2.732,.986,2.932,1.214c.416,.475,.766,1.013,.858,2.098,.068,.789,.009,1.633-.018,2.065-.009,.143,.034,.195,.152,.195,.028,0,.055-.004,.082-.011,.222-.054,.607-.252,1.002-.338,.065-.014,.13-.022,.197-.022,.211,0,.409,.082,.491,.294,.117,.309-.041,.56-.402,.812-.218,.152-1.003,.638-1.18,.802-.184,.169-.159,.3-.138,.466,.018,.139,.412,1.991,2.89,3.189,.146,.073,.393,.222-.042,.464Zm7.179-4.249c0,7.732-6.268,14-14,14S2,23.732,2,16,8.268,2,16,2s14,6.268,14,14Zm-6.057,3.646c-.111-.302-.323-.464-.564-.599-.045-.027-.087-.048-.123-.064-.072-.037-.146-.073-.219-.111-.752-.399-1.339-.901-1.746-1.497-.116-.168-.216-.346-.3-.531-.035-.099-.033-.156-.008-.207,.025-.04,.057-.074,.096-.1,.129-.085,.262-.172,.353-.231,.161-.104,.289-.187,.371-.245,.309-.216,.524-.445,.659-.702,.19-.358,.216-.782,.069-1.16-.204-.538-.713-.872-1.328-.872-.13,0-.259,.014-.386,.041-.034,.007-.068,.015-.101,.024,.006-.368-.002-.756-.035-1.138-.116-1.344-.587-2.048-1.077-2.61-.314-.352-.684-.65-1.095-.881-.744-.425-1.589-.641-2.509-.641s-1.76,.216-2.505,.641c-.412,.232-.783,.53-1.097,.883-.491,.562-.961,1.267-1.077,2.61-.033,.382-.041,.773-.036,1.138-.033-.009-.067-.016-.101-.024-.127-.027-.256-.041-.386-.041-.616,0-1.125,.334-1.329,.872-.147,.379-.123,.802,.067,1.161,.135,.256,.351,.486,.66,.702,.082,.057,.21,.14,.371,.245,.087,.056,.214,.139,.339,.222,.044,.028,.081,.065,.109,.109,.026,.054,.027,.111-.012,.217-.083,.182-.181,.356-.295,.52-.398,.583-.968,1.076-1.696,1.472-.385,.204-.786,.341-.955,.801-.128,.347-.044,.742,.28,1.075,.119,.124,.257,.229,.409,.309,.316,.174,.652,.308,1,.4,.072,.019,.14,.049,.202,.09,.118,.103,.101,.259,.259,.487,.079,.118,.179,.22,.296,.301,.33,.228,.701,.242,1.095,.258,.355,.013,.758,.029,1.218,.181,.19,.063,.388,.185,.618,.327,.551,.339,1.304,.802,2.566,.802s2.021-.466,2.575-.805c.228-.14,.424-.26,.609-.322,.46-.152,.863-.167,1.218-.181,.393-.015,.764-.029,1.095-.258,.138-.096,.253-.222,.337-.368,.113-.193,.11-.327,.217-.421,.058-.039,.122-.069,.19-.087,.353-.093,.694-.228,1.014-.404,.161-.087,.306-.2,.429-.336l.004-.005c.304-.325,.381-.709,.256-1.047Z"/></svg>