<?xml version="1.0" encoding="UTF-8"?><svg id="Icons" xmlns="http://www.w3.org/2000/svg" viewBox="0 0 32 32"><path d="M16,2c-7.732,0-14,6.268-14,14s6.268,14,14,14,14-6.268,14-14S23.732,2,16,2ZM7.557,17.996c0,.106-.086,.193-.193,.193s-.193-.086-.193-.193c-.181-.948-.266-1.736-.017-2.683,.01-.109,.102-.192,.211-.192s.201,.083,.211,.192c.301,.952,.193,1.721-.019,2.683Zm1.262,.698c-.019,.21-.385,.212-.405,0-.183-1.411-.26-2.66-.008-4.065,.014-.105,.104-.183,.21-.183s.196,.078,.21,.183c.291,1.424,.195,2.634-.008,4.065Zm1.228,.187c0,.107-.086,.193-.193,.193s-.193-.086-.193-.193c-.158-1.395-.299-2.665,0-4.047,.01-.105,.098-.184,.203-.184s.193,.08,.203,.184c.316,1.401,.172,2.629-.021,4.047Zm1.268-.008c-.01,.105-.098,.185-.203,.185s-.193-.08-.203-.185c-.229-1.782-.229-3.586,0-5.367,0-.114,.092-.206,.206-.206s.206,.092,.206,.206c.244,1.781,.242,3.587-.006,5.367Zm1.241-.01c0,.11-.089,.199-.199,.199s-.199-.089-.199-.199c-.285-2.02-.193-3.912,0-5.936,0-.11,.089-.2,.199-.2s.199,.089,.199,.2c.202,2.047,.293,3.883,0,5.936Zm1.243,.006c-.014,.103-.102,.18-.206,.18s-.192-.077-.206-.18c-.249-1.975-.193-3.77,0-5.749,0-.115,.093-.208,.208-.208s.208,.093,.208,.208c.214,1.997,.278,3.745-.004,5.749Zm1.241-.008c0,.11-.089,.198-.198,.198s-.199-.089-.199-.198c-.297-2.212-.166-4.294,0-6.512,0-.11,.089-.199,.199-.199s.198,.089,.198,.199c.185,2.237,.32,4.278,0,6.512Zm7.408,.181h-6.134c-.281-.002-.508-.231-.507-.513v-6.601c-.012-.234,.124-.451,.339-.543,0,0,.563-.385,1.75-.385,.729-.003,1.445,.193,2.072,.567,.987,.577,1.686,1.542,1.927,2.66,.212-.061,.431-.092,.651-.091,.663,0,1.298,.269,1.76,.745,.462,.476,.711,1.119,.691,1.782-.039,1.349-1.208,2.38-2.55,2.38Z"/></svg>