<?xml version="1.0" encoding="UTF-8"?><svg id="Icons" xmlns="http://www.w3.org/2000/svg" viewBox="0 0 32 32"><path d="M19.669,19.538c-.143,.235-.451,.31-.686,.165-1.878-1.147-4.243-1.407-7.028-.771-.268,.061-.536-.107-.597-.375-.061-.268,.106-.536,.375-.597,3.047-.696,5.661-.396,7.77,.892,.235,.144,.31,.451,.165,.686Zm.774-3.036c-2.469-1.518-6.081-1.945-8.987-1.063-.329,.1-.515,.448-.416,.778,.1,.329,.448,.515,.778,.416,2.543-.772,5.821-.389,7.972,.932,.293,.181,.677,.088,.858-.206h0c.181-.293,.088-.677-.205-.857Zm9.558-.503c0,7.732-6.268,14-14,14S2,23.732,2,16,8.268,2,16,2s14,6.268,14,14Zm-6,0c0-4.418-3.581-8-8-8h0c-4.418,0-8,3.581-8,8s3.582,8,8,8,8-3.582,8-8Zm-12.996-3.266c-.396,.12-.619,.538-.499,.933,.12,.395,.538,.619,.933,.499,2.462-.747,6.716-.606,9.294,.925h0c.354,.211,.815,.094,1.025-.262,.211-.355,.095-.814-.262-1.025-2.969-1.762-7.666-1.928-10.492-1.07Z"/></svg>