<?xml version="1.0" encoding="UTF-8"?><svg id="Icons" xmlns="http://www.w3.org/2000/svg" viewBox="0 0 32 32"><path d="M16,2c-7.732,0-14,6.268-14,14s6.268,14,14,14,14-6.268,14-14S23.732,2,16,2Zm6.993,8.88c-.222,2.33-1.181,7.983-1.669,10.592-.207,1.104-.613,1.474-1.007,1.51-.856,.079-1.505-.565-2.334-1.109-1.297-.85-2.029-1.379-3.288-2.209-1.455-.959-.512-1.485,.317-2.346,.217-.225,3.987-3.654,4.06-3.965,.009-.039,.018-.184-.069-.26-.086-.077-.213-.05-.305-.03-.13,.03-2.202,1.399-6.214,4.108-.588,.404-1.121,.6-1.598,.59-.526-.011-1.538-.297-2.29-.542-.923-.3-1.656-.458-1.592-.968,.033-.265,.399-.537,1.096-.814,4.295-1.871,7.159-3.105,8.592-3.701,4.091-1.702,4.942-1.997,5.496-2.007,.122-.002,.394,.028,.571,.171,.149,.121,.19,.284,.21,.399,.02,.115,.044,.376,.025,.58Z"/></svg>