<?xml version="1.0" encoding="UTF-8"?><svg id="Icons" xmlns="http://www.w3.org/2000/svg" viewBox="0 0 32 32"><path d="M16,2c-7.732,0-14,6.268-14,14s6.268,14,14,14,14-6.268,14-14S23.732,2,16,2Zm6.934,12.57s-.965-.04-1.681-.23c-.998-.267-1.638-.677-1.638-.677,0,0-.444-.294-.477-.314v5.637c0,.313-.083,1.097-.332,1.751-.218,.559-.529,1.077-.921,1.531,0,0-.613,.76-1.691,1.271-.971,.46-1.827,.45-2.082,.46,0,0-1.475,.059-2.805-.845l-.007-.007v.007c-.45-.314-.851-.692-1.19-1.123-.421-.537-.679-1.174-.746-1.361v-.007c-.106-.317-.328-1.084-.295-1.824,.053-1.304,.491-2.108,.607-2.308,.305-.548,.703-1.039,1.177-1.451,1.093-.916,2.519-1.333,3.933-1.151l-.003,2.798c-.23-.075-.471-.113-.714-.113-1.28,0-2.318,1.044-2.318,2.333s1.038,2.333,2.318,2.333c.399,0,.791-.103,1.137-.3,.675-.384,1.115-1.078,1.174-1.852v-.006c.002-.008,.002-.016,.002-.024,.001-.019,.003-.035,.003-.052,.006-.139,.006-.28,.006-.423V8h2.748s-.033,.263,.036,.67h-.003c.083,.49,.308,1.191,.912,1.881,.241,.261,.513,.491,.809,.687,.102,.066,.207,.128,.315,.183,.703,.35,1.389,.457,1.727,.42v2.728Z"/></svg>