<?xml version="1.0" encoding="UTF-8"?><svg id="Icons" xmlns="http://www.w3.org/2000/svg" viewBox="0 0 32 32"><path d="M16,2c-7.732,0-14,6.268-14,14s6.268,14,14,14,14-6.268,14-14S23.732,2,16,2Zm7.26,10.75c.01,.15,.01,.3,.01,.451,0,4.609-3.508,9.924-9.924,9.924v-.003c-1.895,.003-3.751-.54-5.346-1.564,.276,.033,.552,.05,.83,.05,1.57,.001,3.096-.526,4.332-1.496-1.492-.028-2.801-1.001-3.258-2.422,.523,.101,1.062,.08,1.575-.06-1.627-.329-2.798-1.758-2.798-3.419v-.044c.485,.27,1.028,.42,1.583,.437-1.532-1.024-2.005-3.063-1.079-4.657,1.771,2.179,4.383,3.504,7.188,3.644-.281-1.211,.103-2.481,1.009-3.332,1.405-1.32,3.614-1.253,4.935,.151,.781-.154,1.53-.441,2.215-.847-.26,.807-.805,1.493-1.533,1.929,.691-.082,1.367-.267,2.003-.549-.468,.702-1.058,1.313-1.74,1.807Z"/></svg>