<?xml version="1.0" encoding="UTF-8"?><svg id="Icons" xmlns="http://www.w3.org/2000/svg" viewBox="0 0 32 32"><path d="M16,2c-7.732,0-14,6.268-14,14s6.268,14,14,14,14-6.268,14-14S23.732,2,16,2Zm4.729,17.184c-2.175,2.833-4.016,4.249-5.521,4.249-.932,0-1.722-.862-2.366-2.588-.431-1.582-.861-3.163-1.292-4.745-.479-1.725-.992-2.588-1.541-2.588-.12,0-.538,.252-1.256,.755l-.753-.972c.79-.695,1.569-1.39,2.335-2.086,1.053-.912,1.844-1.391,2.371-1.44,1.245-.12,2.012,.733,2.299,2.558,.311,1.97,.526,3.195,.647,3.674,.359,1.634,.754,2.45,1.185,2.45,.335,0,.838-.53,1.509-1.59,.67-1.06,1.029-1.867,1.077-2.421,.095-.915-.264-1.373-1.077-1.373-.383,0-.778,.088-1.184,.263,.786-2.581,2.289-3.834,4.506-3.763,1.644,.048,2.419,1.117,2.324,3.205-.071,1.56-1.159,3.697-3.263,6.409Z"/></svg>