<?xml version="1.0" encoding="UTF-8"?><svg id="Icons" xmlns="http://www.w3.org/2000/svg" viewBox="0 0 32 32"><path d="M15.177,13.024c-.006-.356,.303-.668,.67-.675,.373-.007,.675,.285,.678,.655,.004,.377-.283,.669-.661,.673-.377,.005-.681-.284-.687-.653Zm1.926,3.584c-.31-.001-.57,.265-.56,.573,.01,.295,.258,.533,.556,.533,.299,0,.546-.234,.557-.53,.012-.313-.24-.576-.553-.577Zm-5.482-4.259c-.374-.011-.681,.275-.692,.643-.011,.373,.275,.672,.651,.682,.373,.009,.686-.277,.7-.64,.014-.355-.294-.674-.659-.685Zm8.929,4.26c-.29-.002-.537,.236-.549,.529-.013,.314,.231,.572,.542,.572,.3,.001,.538-.226,.549-.525,.012-.315-.232-.574-.542-.577Zm9.449-.609c0,7.732-6.268,14-14,14S2,23.732,2,16,8.268,2,16,2s14,6.268,14,14Zm-16.12,3.032c-.132-1.561,.351-2.82,1.411-3.848,1.049-1.017,2.34-1.467,3.825-1.545-.084-.902-.404-1.665-.924-2.345-1.441-1.882-4.104-2.671-6.474-1.897-1.736,.567-3.014,1.655-3.535,3.45-.562,1.94,.189,3.823,1.972,5.082,.278,.196,.32,.364,.229,.666-.123,.41-.193,.836-.301,1.323,.587-.367,1.082-.696,1.598-.987,.156-.088,.373-.11,.557-.094,.532,.045,1.06,.124,1.641,.196Zm9.248-3.052c-1.485-1.915-4.575-2.375-6.681-.995-2.37,1.553-2.663,4.458-.614,6.353,1.077,.996,2.383,1.402,3.842,1.253,.479-.049,.96-.313,1.417-.265,.459,.048,.891,.362,1.361,.572-.032-.125-.038-.25-.092-.349-.294-.536-.129-.87,.329-1.276,1.582-1.404,1.734-3.622,.438-5.293Z"/></svg>