<?xml version="1.0" encoding="UTF-8"?><svg id="Icons" xmlns="http://www.w3.org/2000/svg" viewBox="0 0 32 32"><path d="M16,2c-7.732,0-14,6.268-14,14s6.268,14,14,14,14-6.268,14-14S23.732,2,16,2Zm.034,21.9s0,0,0,0h-.003c-1.333,0-2.643-.335-3.807-.97l-4.223,1.108,1.13-4.128c-.697-1.208-1.064-2.579-1.063-3.983,.002-4.392,3.576-7.966,7.967-7.966,2.131,0,4.131,.831,5.635,2.336,1.504,1.506,2.332,3.507,2.331,5.636-.002,4.392-3.576,7.966-7.966,7.966Zm.003-14.593c-3.652,0-6.623,2.97-6.624,6.621,0,1.251,.35,2.47,1.012,3.524l.157,.25-.669,2.444,2.506-.657,.242,.144c1.017,.603,2.182,.922,3.37,.923h.003c3.65,0,6.62-2.97,6.621-6.621,0-1.769-.687-3.433-1.938-4.684-1.25-1.252-2.913-1.941-4.681-1.942Zm3.895,9.468c-.166,.465-.961,.889-1.344,.947-.343,.051-.777,.073-1.254-.079-.289-.092-.66-.214-1.135-.419-1.997-.862-3.301-2.873-3.4-3.006-.1-.133-.813-1.079-.813-2.059s.514-1.461,.697-1.661c.182-.199,.398-.249,.531-.249s.266,.001,.382,.007c.122,.006,.286-.046,.448,.342,.166,.398,.564,1.378,.614,1.478,.05,.1,.083,.216,.017,.349s-.1,.216-.199,.332c-.099,.116-.209,.26-.299,.349-.1,.099-.203,.207-.087,.406,.116,.199,.516,.851,1.107,1.379,.76,.678,1.402,.888,1.601,.988,.199,.1,.315,.083,.431-.05,.116-.133,.498-.581,.63-.78,.133-.199,.265-.166,.448-.1s1.161,.548,1.36,.648c.199,.1,.332,.149,.382,.232,.05,.083,.05,.482-.116,.947Z"/></svg>