<?xml version="1.0" encoding="UTF-8"?><svg id="Icons" xmlns="http://www.w3.org/2000/svg" viewBox="0 0 32 32"><path d="M16,2c-7.732,0-14,6.268-14,14s6.268,14,14,14,14-6.268,14-14S23.732,2,16,2Zm7.666,17.851c-.184,.688-.726,1.231-1.415,1.415-1.248,.334-6.251,.334-6.251,.334,0,0-5.003,0-6.251-.334-.688-.184-1.231-.726-1.415-1.415-.334-1.248-.334-3.851-.334-3.851,0,0,0-2.603,.334-3.851,.184-.688,.726-1.231,1.415-1.415,1.248-.334,6.251-.334,6.251-.334,0,0,5.003,0,6.251,.334,.688,.184,1.231,.726,1.415,1.415,.334,1.248,.334,3.851,.334,3.851,0,0,0,2.603-.334,3.851Zm-9.266-6.251l4.157,2.4-4.157,2.4v-4.8Z"/></svg>